<?xml version="1.0" encoding="UTF-8"?>
<svg width="200" height="200" viewBox="0 0 200 200" fill="none" xmlns="http://www.w3.org/2000/svg">
  <path d="M40 80 C40 80, 100 20, 160 80 C160 80, 120 140, 80 140 C40 140, 40 80, 40 80 Z" stroke="white" stroke-width="4" fill="none"/>
  <circle cx="60" cy="100" r="4" fill="white"/>
  <circle cx="80" cy="60" r="4" fill="white"/>
  <circle cx="100" cy="40" r="4" fill="white"/>
  <circle cx="120" cy="60" r="4" fill="white"/>
  <circle cx="140" cy="100" r="4" fill="white"/>
  <circle cx="120" cy="120" r="4" fill="white"/>
  <circle cx="100" cy="130" r="4" fill="white"/>
  <circle cx="80" cy="120" r="4" fill="white"/>
  <path d="M60 100 L80 60 L100 40 L120 60 L140 100 L120 120 L100 130 L80 120 L60 100" stroke="white" stroke-width="2" fill="none"/>
</svg>