<svg width="235" height="61" viewBox="0 0 235 61" fill="none" xmlns="http://www.w3.org/2000/svg">
<path d="M81.82 3H84.02V8.7H86.38V3H88.58V17H86.38V10.7H84.02V17H81.82V3ZM93.4184 17.2C92.3518 17.2 91.5384 16.9 90.9784 16.3C90.4184 15.6867 90.1384 14.8133 90.1384 13.68V3H92.3384V13.84C92.3384 14.32 92.4318 14.6667 92.6184 14.88C92.8184 15.0933 93.0984 15.2 93.4584 15.2C93.8184 15.2 94.0918 15.0933 94.2784 14.88C94.4784 14.6667 94.5784 14.32 94.5784 13.84V3H96.6984V13.68C96.6984 14.8133 96.4184 15.6867 95.8584 16.3C95.2984 16.9 94.4851 17.2 93.4184 17.2ZM98.2653 3H101.405L102.805 13.02H102.845L104.245 3H107.385V17H105.305V6.4H105.265L103.665 17H101.825L100.225 6.4H100.185V17H98.2653V3ZM110.727 3H113.707L115.987 17H113.787L113.387 14.22V14.26H110.887L110.487 17H108.447L110.727 3ZM113.127 12.36L112.147 5.44H112.107L111.147 12.36H113.127ZM117.054 3H119.814L121.954 11.38H121.994V3H123.954V17H121.694L119.054 6.78H119.014V17H117.054V3ZM83.52 23H86.5L88.78 37H86.58L86.18 34.22V34.26H83.68L83.28 37H81.24L83.52 23ZM85.92 32.36L84.94 25.44H84.9L83.94 32.36H85.92ZM89.8473 23H93.1073C94.2407 23 95.0673 23.2667 95.5873 23.8C96.1073 24.32 96.3673 25.1267 96.3673 26.22V27.08C96.3673 28.5333 95.8873 29.4533 94.9273 29.84V29.88C95.4607 30.04 95.834 30.3667 96.0473 30.86C96.274 31.3533 96.3873 32.0133 96.3873 32.84V35.3C96.3873 35.7 96.4007 36.0267 96.4273 36.28C96.454 36.52 96.5207 36.76 96.6273 37H94.3873C94.3073 36.7733 94.254 36.56 94.2273 36.36C94.2007 36.16 94.1873 35.8 94.1873 35.28V32.72C94.1873 32.08 94.0807 31.6333 93.8673 31.38C93.6673 31.1267 93.314 31 92.8073 31H92.0473V37H89.8473V23ZM92.8473 29C93.2873 29 93.614 28.8867 93.8273 28.66C94.054 28.4333 94.1673 28.0533 94.1673 27.52V26.44C94.1673 25.9333 94.074 25.5667 93.8873 25.34C93.714 25.1133 93.434 25 93.0473 25H92.0473V29H92.8473ZM99.5947 25H97.2947V23H104.095V25H101.795V37H99.5947V25ZM105.16 23H107.36V37H105.16V23ZM109.008 23H114.828V25H111.208V28.9H114.048V30.9H111.208V37H109.008V23ZM115.883 23H118.083V37H115.883V23ZM122.83 37.2C121.777 37.2 120.97 36.9 120.41 36.3C119.863 35.7 119.59 34.8533 119.59 33.76V26.24C119.59 25.1467 119.863 24.3 120.41 23.7C120.97 23.1 121.777 22.8 122.83 22.8C123.883 22.8 124.683 23.1 125.23 23.7C125.79 24.3 126.07 25.1467 126.07 26.24V27.72H123.99V26.1C123.99 25.2333 123.623 24.8 122.89 24.8C122.157 24.8 121.79 25.2333 121.79 26.1V33.92C121.79 34.7733 122.157 35.2 122.89 35.2C123.623 35.2 123.99 34.7733 123.99 33.92V31.78H126.07V33.76C126.07 34.8533 125.79 35.7 125.23 36.3C124.683 36.9 123.883 37.2 122.83 37.2ZM127.386 23H129.586V37H127.386V23ZM132.934 23H135.914L138.194 37H135.994L135.594 34.22V34.26H133.094L132.694 37H130.654L132.934 23ZM135.334 32.36L134.354 25.44H134.314L133.354 32.36H135.334ZM139.261 23H141.461V35H145.081V37H139.261V23ZM149.34 23H151.54V37H149.34V23ZM153.187 23H155.947L158.087 31.38H158.127V23H160.087V37H157.827L155.187 26.78H155.147V37H153.187V23ZM163.442 25H161.142V23H167.942V25H165.642V37H163.442V25ZM169.008 23H175.008V25H171.208V28.7H174.228V30.7H171.208V35H175.008V37H169.008V23ZM176.273 23H178.473V35H182.093V37H176.273V23ZM183.148 23H185.348V35H188.968V37H183.148V23ZM190.023 23H192.223V37H190.023V23ZM196.991 37.2C195.924 37.2 195.111 36.9 194.551 36.3C193.991 35.6867 193.711 34.8133 193.711 33.68V26.32C193.711 25.1867 193.991 24.32 194.551 23.72C195.111 23.1067 195.924 22.8 196.991 22.8C198.057 22.8 198.871 23.1067 199.431 23.72C199.991 24.32 200.271 25.1867 200.271 26.32V27.52H198.191V26.18C198.191 25.26 197.811 24.8 197.051 24.8C196.291 24.8 195.911 25.26 195.911 26.18V33.84C195.911 34.7467 196.291 35.2 197.051 35.2C197.811 35.2 198.191 34.7467 198.191 33.84V31.1H197.091V29.1H200.271V33.68C200.271 34.8133 199.991 35.6867 199.431 36.3C198.871 36.9 198.057 37.2 196.991 37.2ZM201.683 23H207.683V25H203.883V28.7H206.903V30.7H203.883V35H207.683V37H201.683V23ZM208.949 23H211.709L213.849 31.38H213.889V23H215.849V37H213.589L210.949 26.78H210.909V37H208.949V23ZM220.584 37.2C219.531 37.2 218.724 36.9 218.164 36.3C217.617 35.7 217.344 34.8533 217.344 33.76V26.24C217.344 25.1467 217.617 24.3 218.164 23.7C218.724 23.1 219.531 22.8 220.584 22.8C221.637 22.8 222.437 23.1 222.984 23.7C223.544 24.3 223.824 25.1467 223.824 26.24V27.72H221.744V26.1C221.744 25.2333 221.377 24.8 220.644 24.8C219.911 24.8 219.544 25.2333 219.544 26.1V33.92C219.544 34.7733 219.911 35.2 220.644 35.2C221.377 35.2 221.744 34.7733 221.744 33.92V31.78H223.824V33.76C223.824 34.8533 223.544 35.7 222.984 36.3C222.437 36.9 221.637 37.2 220.584 37.2ZM225.14 23H231.14V25H227.34V28.7H230.36V30.7H227.34V35H231.14V37H225.14V23ZM81.82 43H85.08C86.2133 43 87.04 43.2667 87.56 43.8C88.08 44.32 88.34 45.1267 88.34 46.22V47.08C88.34 48.5333 87.86 49.4533 86.9 49.84V49.88C87.4333 50.04 87.8067 50.3667 88.02 50.86C88.2467 51.3533 88.36 52.0133 88.36 52.84V55.3C88.36 55.7 88.3733 56.0267 88.4 56.28C88.4267 56.52 88.4933 56.76 88.6 57H86.36C86.28 56.7733 86.2267 56.56 86.2 56.36C86.1733 56.16 86.16 55.8 86.16 55.28V52.72C86.16 52.08 86.0533 51.6333 85.84 51.38C85.64 51.1267 85.2867 51 84.78 51H84.02V57H81.82V43ZM84.82 49C85.26 49 85.5867 48.8867 85.8 48.66C86.0267 48.4333 86.14 48.0533 86.14 47.52V46.44C86.14 45.9333 86.0467 45.5667 85.86 45.34C85.6867 45.1133 85.4067 45 85.02 45H84.02V49H84.82ZM89.8864 43H95.8864V45H92.0864V48.7H95.1064V50.7H92.0864V55H95.8864V57H89.8864V43ZM100.051 57.2C98.9844 57.2 98.1778 56.9 97.6311 56.3C97.0844 55.6867 96.8111 54.8133 96.8111 53.68V52.88H98.8911V53.84C98.8911 54.7467 99.2711 55.2 100.031 55.2C100.404 55.2 100.684 55.0933 100.871 54.88C101.071 54.6533 101.171 54.2933 101.171 53.8C101.171 53.2133 101.038 52.7 100.771 52.26C100.504 51.8067 100.011 51.2667 99.2911 50.64C98.3844 49.84 97.7511 49.12 97.3911 48.48C97.0311 47.8267 96.8511 47.0933 96.8511 46.28C96.8511 45.1733 97.1311 44.32 97.6911 43.72C98.2511 43.1067 99.0644 42.8 100.131 42.8C101.184 42.8 101.978 43.1067 102.511 43.72C103.058 44.32 103.331 45.1867 103.331 46.32V46.9H101.251V46.18C101.251 45.7 101.158 45.3533 100.971 45.14C100.784 44.9133 100.511 44.8 100.151 44.8C99.4178 44.8 99.0511 45.2467 99.0511 46.14C99.0511 46.6467 99.1844 47.12 99.4511 47.56C99.7311 48 100.231 48.5333 100.951 49.16C101.871 49.96 102.504 50.6867 102.851 51.34C103.198 51.9933 103.371 52.76 103.371 53.64C103.371 54.7867 103.084 55.6667 102.511 56.28C101.951 56.8933 101.131 57.2 100.051 57.2ZM104.633 43H110.633V45H106.833V48.7H109.853V50.7H106.833V55H110.633V57H104.633V43ZM113.598 43H116.578L118.858 57H116.658L116.258 54.22V54.26H113.758L113.358 57H111.318L113.598 43ZM115.998 52.36L115.018 45.44H114.978L114.018 52.36H115.998ZM119.925 43H123.185C124.319 43 125.145 43.2667 125.665 43.8C126.185 44.32 126.445 45.1267 126.445 46.22V47.08C126.445 48.5333 125.965 49.4533 125.005 49.84V49.88C125.539 50.04 125.912 50.3667 126.125 50.86C126.352 51.3533 126.465 52.0133 126.465 52.84V55.3C126.465 55.7 126.479 56.0267 126.505 56.28C126.532 56.52 126.599 56.76 126.705 57H124.465C124.385 56.7733 124.332 56.56 124.305 56.36C124.279 56.16 124.265 55.8 124.265 55.28V52.72C124.265 52.08 124.159 51.6333 123.945 51.38C123.745 51.1267 123.392 51 122.885 51H122.125V57H119.925V43ZM122.925 49C123.365 49 123.692 48.8867 123.905 48.66C124.132 48.4333 124.245 48.0533 124.245 47.52V46.44C124.245 45.9333 124.152 45.5667 123.965 45.34C123.792 45.1133 123.512 45 123.125 45H122.125V49H122.925ZM131.092 57.2C130.039 57.2 129.232 56.9 128.672 56.3C128.125 55.7 127.852 54.8533 127.852 53.76V46.24C127.852 45.1467 128.125 44.3 128.672 43.7C129.232 43.1 130.039 42.8 131.092 42.8C132.145 42.8 132.945 43.1 133.492 43.7C134.052 44.3 134.332 45.1467 134.332 46.24V47.72H132.252V46.1C132.252 45.2333 131.885 44.8 131.152 44.8C130.419 44.8 130.052 45.2333 130.052 46.1V53.92C130.052 54.7733 130.419 55.2 131.152 55.2C131.885 55.2 132.252 54.7733 132.252 53.92V51.78H134.332V53.76C134.332 54.8533 134.052 55.7 133.492 56.3C132.945 56.9 132.145 57.2 131.092 57.2ZM135.648 43H137.848V48.7H140.208V43H142.408V57H140.208V50.7H137.848V57H135.648V43ZM147.25 43H149.45V55H153.07V57H147.25V43ZM155.903 43H158.883L161.163 57H158.963L158.563 54.22V54.26H156.063L155.663 57H153.623L155.903 43ZM158.303 52.36L157.323 45.44H157.283L156.323 52.36H158.303ZM162.23 43H165.55C166.683 43 167.51 43.2667 168.03 43.8C168.55 44.32 168.81 45.1267 168.81 46.22V46.78C168.81 47.5 168.69 48.0867 168.45 48.54C168.223 48.9933 167.87 49.32 167.39 49.52V49.56C168.483 49.9333 169.03 50.9067 169.03 52.48V53.68C169.03 54.76 168.743 55.5867 168.17 56.16C167.61 56.72 166.783 57 165.69 57H162.23V43ZM165.29 48.7C165.73 48.7 166.057 48.5867 166.27 48.36C166.497 48.1333 166.61 47.7533 166.61 47.22V46.44C166.61 45.9333 166.517 45.5667 166.33 45.34C166.157 45.1133 165.877 45 165.49 45H164.43V48.7H165.29ZM165.69 55C166.077 55 166.363 54.9 166.55 54.7C166.737 54.4867 166.83 54.1267 166.83 53.62V52.4C166.83 51.76 166.717 51.32 166.49 51.08C166.277 50.8267 165.917 50.7 165.41 50.7H164.43V55H165.69Z" fill="white"/>
<path fill-rule="evenodd" clip-rule="evenodd" d="M16.9868 50.416L20.2705 38.4792L21.0008 38.6801L17.7171 50.6169L16.9868 50.416Z" fill="white"/>
<path fill-rule="evenodd" clip-rule="evenodd" d="M13.6189 45.882L17.8678 51.3846L17.2683 51.8475L13.0194 46.3449L13.6189 45.882Z" fill="white"/>
<path fill-rule="evenodd" clip-rule="evenodd" d="M16.995 39.3725L13.6776 45.6513L13.0079 45.2974L16.3253 39.0186L16.995 39.3725Z" fill="white"/>
<path fill-rule="evenodd" clip-rule="evenodd" d="M20.6356 38.5797L16.9951 39.3725L16.8339 38.6324L20.4744 37.8396L20.6356 38.5797Z" fill="white"/>
<path fill-rule="evenodd" clip-rule="evenodd" d="M16.0114 33.1043L16.9952 39.3725L16.2469 39.4899L15.2632 33.2218L16.0114 33.1043Z" fill="white"/>
<path fill-rule="evenodd" clip-rule="evenodd" d="M16.2049 55.5054L16.6829 51.6971L17.4344 51.7914L16.9564 55.5997L16.2049 55.5054Z" fill="white"/>
<path fill-rule="evenodd" clip-rule="evenodd" d="M13.0822 49.921L17.1004 55.3649L16.491 55.8147L12.4728 50.3708L13.0822 49.921Z" fill="white"/>
<path fill-rule="evenodd" clip-rule="evenodd" d="M13.4743 45.9679L13.3989 50.1244L12.6416 50.1106L12.717 45.9542L13.4743 45.9679Z" fill="white"/>
<path fill-rule="evenodd" clip-rule="evenodd" d="M26.899 45.8249L17.6959 51.0952L17.3195 50.4379L26.5226 45.1676L26.899 45.8249Z" fill="white"/>
<path fill-rule="evenodd" clip-rule="evenodd" d="M24.897 41.138L26.7258 45.5334L26.0265 45.8244L24.1977 41.429L24.897 41.138Z" fill="white"/>
<path fill-rule="evenodd" clip-rule="evenodd" d="M20.6357 38.5797L24.6391 40.7039L24.2841 41.373L20.2806 39.2488L20.6357 38.5797Z" fill="white"/>
<path fill-rule="evenodd" clip-rule="evenodd" d="M24.2068 33.7164L24.897 41.138L24.1428 41.2081L23.4527 33.7865L24.2068 33.7164Z" fill="white"/>
<path fill-rule="evenodd" clip-rule="evenodd" d="M16.0115 33.1043L24.2069 33.7164L24.1505 34.4718L15.9551 33.8597L16.0115 33.1043Z" fill="white"/>
<path fill-rule="evenodd" clip-rule="evenodd" d="M22.0443 19.5339L16.0114 33.1043L15.3193 32.7966L21.3522 19.2262L22.0443 19.5339Z" fill="white"/>
<path fill-rule="evenodd" clip-rule="evenodd" d="M22.0276 23.4596L22.0443 19.5338L22.8017 19.537L22.785 23.4628L22.0276 23.4596Z" fill="white"/>
<path fill-rule="evenodd" clip-rule="evenodd" d="M24.2068 33.7164L22.0276 23.4596L22.7685 23.3022L24.9477 33.559L24.2068 33.7164Z" fill="white"/>
<path fill-rule="evenodd" clip-rule="evenodd" d="M32.989 18.5122L33.6117 14.6179L34.3596 14.7375L33.7369 18.6318L32.989 18.5122Z" fill="white"/>
<path fill-rule="evenodd" clip-rule="evenodd" d="M33.4841 24.2876L32.9891 18.5122L33.7437 18.4475L34.2388 24.2229L33.4841 24.2876Z" fill="white"/>
<path fill-rule="evenodd" clip-rule="evenodd" d="M29.1307 29.8115L33.5155 23.6815L34.1316 24.1222L29.7468 30.2521L29.1307 29.8115Z" fill="white"/>
<path fill-rule="evenodd" clip-rule="evenodd" d="M24.0348 33.4271L29.2754 29.7255L29.7123 30.3442L24.4718 34.0457L24.0348 33.4271Z" fill="white"/>
<path fill-rule="evenodd" clip-rule="evenodd" d="M34.9921 29.4611L24.7523 41.224L24.181 40.7267L34.4208 28.9638L34.9921 29.4611Z" fill="white"/>
<path fill-rule="evenodd" clip-rule="evenodd" d="M34.8685 29.5826L33.1918 24.4613L33.9116 24.2256L35.5883 29.3469L34.8685 29.5826Z" fill="white"/>
<path fill-rule="evenodd" clip-rule="evenodd" d="M44.5859 20.2357L34.992 29.4611L34.467 28.9152L44.061 19.6898L44.5859 20.2357Z" fill="white"/>
<path fill-rule="evenodd" clip-rule="evenodd" d="M33.1795 23.8813L44.1695 19.4258L44.4541 20.1278L33.464 24.5833L33.1795 23.8813Z" fill="white"/>
<path fill-rule="evenodd" clip-rule="evenodd" d="M46.6473 17.4444L32.989 18.5123L32.9299 17.7571L46.5883 16.6893L46.6473 17.4444Z" fill="white"/>
<path fill-rule="evenodd" clip-rule="evenodd" d="M43.9526 19.8289L47.0541 16.8111L47.5823 17.3539L44.4808 20.3717L43.9526 19.8289Z" fill="white"/>
<path fill-rule="evenodd" clip-rule="evenodd" d="M49.9614 39.166L56.1265 28.4538L56.783 28.8317L50.6178 39.5438L49.9614 39.166Z" fill="white"/>
<path fill-rule="evenodd" clip-rule="evenodd" d="M39.9538 30.2327L49.9614 39.166L49.457 39.731L39.4494 30.7977L39.9538 30.2327Z" fill="white"/>
<path fill-rule="evenodd" clip-rule="evenodd" d="M34.9921 29.4611L39.9538 30.2326L39.8375 30.9811L34.8757 30.2095L34.9921 29.4611Z" fill="white"/>
<path fill-rule="evenodd" clip-rule="evenodd" d="M45.0201 19.9777L39.9538 30.2327L39.2747 29.8972L44.341 19.6423L45.0201 19.9777Z" fill="white"/>
<path fill-rule="evenodd" clip-rule="evenodd" d="M39.9538 30.2327L56.1265 28.4539L56.2093 29.2068L40.0366 30.9856L39.9538 30.2327Z" fill="white"/>
<path fill-rule="evenodd" clip-rule="evenodd" d="M36.7057 40.5819L49.8753 39.0213L49.9645 39.7735L36.7948 41.3341L36.7057 40.5819Z" fill="white"/>
<path fill-rule="evenodd" clip-rule="evenodd" d="M35.25 29.8952L36.7917 40.7266L36.0419 40.8333L34.5002 30.0019L35.25 29.8952Z" fill="white"/>
<path fill-rule="evenodd" clip-rule="evenodd" d="M24.639 40.7039L36.7916 40.7266L36.7902 41.484L24.6376 41.4613L24.639 40.7039Z" fill="white"/>
<path fill-rule="evenodd" clip-rule="evenodd" d="M35.2337 47.3304L26.7257 45.5334L26.8823 44.7924L35.3902 46.5893L35.2337 47.3304Z" fill="white"/>
<path fill-rule="evenodd" clip-rule="evenodd" d="M36.7916 40.7266L35.2337 47.3304L34.4965 47.1565L36.0545 40.5527L36.7916 40.7266Z" fill="white"/>
<path fill-rule="evenodd" clip-rule="evenodd" d="M35.2338 47.3304L49.9614 39.166L50.3286 39.8284L35.601 47.9929L35.2338 47.3304Z" fill="white"/>
<path fill-rule="evenodd" clip-rule="evenodd" d="M29.7287 30.3831L24.9654 40.426L24.281 40.1014L29.0444 30.0585L29.7287 30.3831Z" fill="white"/>
<path fill-rule="evenodd" clip-rule="evenodd" d="M33.9871 14.5906L22.5163 23.9524L22.0374 23.3656L33.5082 14.0038L33.9871 14.5906Z" fill="white"/>
<path fill-rule="evenodd" clip-rule="evenodd" d="M62.489 25.6519L56.3258 29.1186L55.9545 28.4585L62.1177 24.9918L62.489 25.6519Z" fill="white"/>
<path fill-rule="evenodd" clip-rule="evenodd" d="M62.7897 26.5484L44.1674 20.5807L44.3985 19.8594L63.0209 25.8271L62.7897 26.5484Z" fill="white"/>
<path d="M26.1896 32.4403C26.9256 33.679 26.5182 35.2798 25.2796 36.0159C24.0409 36.7519 22.4401 36.3445 21.704 35.1058C20.9679 33.8672 21.3754 32.2663 22.614 31.5303C23.8527 30.7942 25.4535 31.2016 26.1896 32.4403Z" fill="white"/>
<path d="M14.2134 45.235C14.5696 45.8344 14.3724 46.609 13.7731 46.9651C13.1737 47.3213 12.3991 47.1242 12.043 46.5248C11.6868 45.9254 11.8839 45.1508 12.4833 44.7947C13.0826 44.4385 13.8572 44.6357 14.2134 45.235Z" fill="white"/>
<path d="M17.2336 54.6005C17.4948 55.04 17.3503 55.608 16.9107 55.8692C16.4712 56.1304 15.9032 55.9858 15.642 55.5463C15.3808 55.1068 15.5254 54.5388 15.9649 54.2776C16.4044 54.0164 16.9725 54.161 17.2336 54.6005Z" fill="white"/>
<path d="M18.0596 50.3895C18.3683 50.909 18.1975 51.5803 17.678 51.889C17.1586 52.1976 16.4873 52.0268 16.1786 51.5073C15.8699 50.9879 16.0408 50.3166 16.5602 50.0079C17.0797 49.6992 17.751 49.8701 18.0596 50.3895Z" fill="white"/>
<path d="M17.9649 38.6983C18.3211 39.2976 18.124 40.0722 17.5246 40.4284C16.9252 40.7846 16.1506 40.5874 15.7945 39.9881C15.4383 39.3887 15.6355 38.6141 16.2348 38.2579C16.8342 37.9018 17.6088 38.0989 17.9649 38.6983Z" fill="white"/>
<path d="M17.3135 32.3304C17.7409 33.0497 17.5043 33.9792 16.7851 34.4066C16.0659 34.834 15.1364 34.5974 14.709 33.8782C14.2816 33.1589 14.5182 32.2294 15.2374 31.802C15.9566 31.3746 16.8861 31.6112 17.3135 32.3304Z" fill="white"/>
<path d="M23.3465 18.76C23.7739 19.4792 23.5374 20.4087 22.8181 20.8361C22.0989 21.2635 21.1694 21.027 20.742 20.3077C20.3146 19.5885 20.5512 18.659 21.2704 18.2316C21.9896 17.8042 22.9192 18.0408 23.3465 18.76Z" fill="white"/>
<path d="M21.7502 37.8195C22.1063 38.4188 21.9092 39.1934 21.3098 39.5496C20.7105 39.9057 19.9359 39.7086 19.5797 39.1092C19.2235 38.5099 19.4207 37.7353 20.02 37.3791C20.6194 37.023 21.394 37.2201 21.7502 37.8195Z" fill="white"/>
<path d="M23.5448 23.0475C23.901 23.6468 23.7038 24.4214 23.1045 24.7776C22.5051 25.1337 21.7305 24.9366 21.3744 24.3372C21.0182 23.7379 21.2154 22.9633 21.8147 22.6071C22.4141 22.251 23.1887 22.4481 23.5448 23.0475Z" fill="white"/>
<path d="M34.7263 13.8577C35.1299 14.5369 34.9065 15.4148 34.2273 15.8185C33.548 16.2221 32.6701 15.9987 32.2665 15.3194C31.8628 14.6402 32.0862 13.7623 32.7655 13.3586C33.4448 12.955 34.3226 13.1784 34.7263 13.8577Z" fill="white"/>
<path d="M48.3994 16.1095C48.803 16.7888 48.5796 17.6667 47.9003 18.0703C47.2211 18.474 46.3432 18.2506 45.9396 17.5713C45.5359 16.892 45.7593 16.0141 46.4386 15.6105C47.1179 15.2068 47.9957 15.4303 48.3994 16.1095Z" fill="white"/>
<path d="M63.0991 24.7019C63.574 25.5011 63.3111 26.5339 62.512 27.0088C61.7129 27.4836 60.6801 27.2208 60.2052 26.4216C59.7303 25.6225 59.9932 24.5897 60.7923 24.1148C61.5914 23.6399 62.6242 23.9028 63.0991 24.7019Z" fill="white"/>
<path d="M36.3687 28.1535C36.8198 28.9127 36.5701 29.8938 35.8109 30.345C35.0518 30.7961 34.0706 30.5464 33.6195 29.7872C33.1683 29.028 33.418 28.0469 34.1772 27.5957C34.9364 27.1446 35.9176 27.3943 36.3687 28.1535Z" fill="white"/>
<path d="M30.4172 29.3406C30.7734 29.94 30.5762 30.7146 29.9769 31.0708C29.3775 31.4269 28.6029 31.2298 28.2468 30.6304C27.8906 30.0311 28.0877 29.2565 28.6871 28.9003C29.2864 28.5441 30.061 28.7413 30.4172 29.3406Z" fill="white"/>
<path d="M34.479 17.7247C34.8351 18.3241 34.638 19.0987 34.0386 19.4549C33.4393 19.811 32.6647 19.6139 32.3085 19.0145C31.9524 18.4152 32.1495 17.6406 32.7489 17.2844C33.3482 16.9282 34.1228 17.1254 34.479 17.7247Z" fill="white"/>
<path d="M34.4539 23.6134C34.81 24.2127 34.6129 24.9873 34.0136 25.3435C33.4142 25.6996 32.6396 25.5025 32.2834 24.9031C31.9273 24.3038 32.1244 23.5292 32.7238 23.173C33.3231 22.8169 34.0977 23.014 34.4539 23.6134Z" fill="white"/>
<path d="M45.1805 19.5887C45.5366 20.1881 45.3395 20.9627 44.7401 21.3188C44.1408 21.675 43.3662 21.4779 43.01 20.8785C42.6538 20.2791 42.851 19.5045 43.4503 19.1484C44.0497 18.7922 44.8243 18.9894 45.1805 19.5887Z" fill="white"/>
<path d="M25.7536 39.9437C26.1097 40.5431 25.9126 41.3177 25.3132 41.6738C24.7139 42.03 23.9393 41.8328 23.5831 41.2335C23.227 40.6341 23.4241 39.8595 24.0235 39.5034C24.6228 39.1472 25.3974 39.3443 25.7536 39.9437Z" fill="white"/>
<path d="M28.2588 44.8183C28.6862 45.5375 28.4496 46.467 27.7304 46.8944C27.0111 47.3218 26.0816 47.0852 25.6542 46.366C25.2268 45.6468 25.4634 44.7173 26.1826 44.2899C26.9019 43.8625 27.8314 44.0991 28.2588 44.8183Z" fill="white"/>
<path d="M38.0939 39.9527C38.5213 40.672 38.2847 41.6015 37.5655 42.0289C36.8463 42.4563 35.9168 42.2197 35.4894 41.5005C35.062 40.7813 35.2986 39.8517 36.0178 39.4243C36.737 38.997 37.6665 39.2335 38.0939 39.9527Z" fill="white"/>
<path d="M36.2036 46.6561C36.5598 47.2555 36.3627 48.0301 35.7633 48.3862C35.164 48.7424 34.3894 48.5453 34.0332 47.9459C33.677 47.3466 33.8742 46.572 34.4735 46.2158C35.0729 45.8596 35.8475 46.0568 36.2036 46.6561Z" fill="white"/>
<path d="M41.0956 29.8478C41.4518 30.4472 41.2546 31.2218 40.6553 31.578C40.0559 31.9341 39.2813 31.737 38.9252 31.1376C38.569 30.5383 38.7661 29.7637 39.3655 29.4075C39.9649 29.0513 40.7394 29.2485 41.0956 29.8478Z" fill="white"/>
<path d="M50.8724 38.7225C51.2286 39.3218 51.0314 40.0964 50.4321 40.4526C49.8327 40.8087 49.0581 40.6116 48.702 40.0122C48.3458 39.4129 48.5429 38.6383 49.1423 38.2821C49.7416 37.926 50.5162 38.1231 50.8724 38.7225Z" fill="white"/>
<path d="M57.2683 28.069C57.6245 28.6683 57.4274 29.4429 56.828 29.7991C56.2287 30.1553 55.4541 29.9581 55.0979 29.3588C54.7417 28.7594 54.9389 27.9848 55.5382 27.6286C56.1376 27.2725 56.9122 27.4696 57.2683 28.069Z" fill="white"/>
<path d="M17.9649 38.6983C18.3211 39.2976 18.124 40.0722 17.5246 40.4284C16.9252 40.7846 16.1506 40.5874 15.7945 39.9881C15.4383 39.3887 15.6355 38.6141 16.2348 38.2579C16.8342 37.9018 17.6088 38.0989 17.9649 38.6983Z" fill="white"/>
<path d="M13.8917 49.6357C14.2241 50.1951 14.0401 50.9181 13.4807 51.2505C12.9213 51.5829 12.1984 51.3989 11.8659 50.8395C11.5335 50.2801 11.7175 49.5572 12.2769 49.2248C12.8363 48.8923 13.5593 49.0763 13.8917 49.6357Z" fill="white"/>
<path d="M72 0V60" stroke="white" stroke-width="2.1"/>
</svg>
